<svg id="signal-atlas-live-mark" xmlns="http://www.w3.org/2000/svg" viewBox="0 0 160 160" fill="none" role="img" aria-labelledby="signal-atlas-live-mark-title signal-atlas-live-mark-desc">
  <title id="signal-atlas-live-mark-title">Signal Atlas Live</title>
  <desc id="signal-atlas-live-mark-desc">Three quiet orbital lines with one active node and one selected anchor node.</desc>
  <g stroke="#7C8D9E" stroke-width="4" stroke-linecap="round">
    <circle cx="80" cy="80" r="58" opacity="0.28" />
    <path d="M28 80c0-28.719 23.281-52 52-52 12.739 0 24.408 4.58 33.452 12.176" opacity="0.48" />
    <path d="M124 48c5.062 8.234 8 17.922 8 28.291 0 28.719-23.281 52-52 52-14.358 0-27.358-5.822-36.771-15.229" opacity="0.68" />
    <path d="M49 39c8.993-7.144 20.376-11.432 32.75-11.432 28.719 0 52 23.281 52 52 0 6.999-1.381 13.675-3.884 19.772" opacity="0.86" />
  </g>
  <circle cx="122" cy="50" r="8" fill="#2F6FED" />
  <circle cx="45" cy="119" r="8" fill="#0F1720" stroke="#EEF2F6" stroke-width="4" />
</svg>
